<?xml version="1.0" encoding="UTF-8"?>
<svg xmlns="http://www.w3.org/2000/svg" xmlns:xlink="http://www.w3.org/1999/xlink" width="24px" height="24px" viewBox="0 0 24 24" version="1.1">
<g id="surface1">
<path style=" stroke:none;fill-rule:nonzero;fill:rgb(0%,0%,0%);fill-opacity:1;" d="M 22.898438 12 C 22.898438 12.425781 22.578125 12.773438 22.183594 12.773438 L 12.773438 12.773438 L 12.773438 22.183594 C 12.773438 22.578125 12.425781 22.898438 12 22.898438 C 11.574219 22.898438 11.226562 22.578125 11.226562 22.183594 L 11.226562 12.773438 L 1.816406 12.773438 C 1.421875 12.773438 1.101562 12.425781 1.101562 12 C 1.101562 11.574219 1.421875 11.226562 1.816406 11.226562 L 11.226562 11.226562 L 11.226562 1.816406 C 11.226562 1.421875 11.574219 1.101562 12 1.101562 C 12.425781 1.101562 12.773438 1.421875 12.773438 1.816406 L 12.773438 11.226562 L 22.183594 11.226562 C 22.578125 11.226562 22.898438 11.574219 22.898438 12 Z M 22.898438 12 "/>
</g>
</svg>
