<?xml version="1.0" encoding="UTF-8"?>
<svg xmlns="http://www.w3.org/2000/svg" xmlns:xlink="http://www.w3.org/1999/xlink" width="24px" height="24px" viewBox="0 0 24 24" version="1.1">
<g id="surface1">
<path style=" stroke:none;fill-rule:nonzero;fill:rgb(0%,0%,0%);fill-opacity:1;" d="M 23.769531 13.089844 L 18.390625 7.710938 L 18.390625 2.425781 C 18.390625 1.992188 18.039062 1.644531 17.609375 1.644531 C 17.175781 1.644531 16.828125 1.992188 16.828125 2.425781 L 16.828125 6.148438 L 12.550781 1.871094 C 12.246094 1.566406 11.753906 1.566406 11.445312 1.871094 L 0.230469 13.089844 C -0.078125 13.394531 -0.078125 13.890625 0.230469 14.195312 C 0.535156 14.5 1.027344 14.5 1.335938 14.195312 L 3.285156 12.242188 L 3.285156 21.574219 C 3.285156 22.007812 3.636719 22.355469 4.066406 22.355469 L 19.933594 22.355469 C 20.363281 22.355469 20.714844 22.007812 20.714844 21.574219 L 20.714844 12.246094 L 22.664062 14.195312 C 22.816406 14.347656 23.019531 14.425781 23.21875 14.425781 C 23.417969 14.425781 23.617188 14.347656 23.769531 14.195312 C 24.078125 13.890625 24.078125 13.394531 23.769531 13.089844 Z M 19.152344 20.792969 L 4.847656 20.792969 L 4.847656 10.679688 L 12 3.53125 L 19.152344 10.679688 Z M 19.152344 20.792969 "/>
</g>
</svg>
