<?xml version="1.0" encoding="UTF-8"?>
<svg xmlns="http://www.w3.org/2000/svg" xmlns:xlink="http://www.w3.org/1999/xlink" width="24px" height="24px" viewBox="0 0 24 24" version="1.1">
<g id="surface1">
<path style=" stroke:none;fill-rule:nonzero;fill:rgb(13.72549%,12.156863%,12.54902%);fill-opacity:1;" d="M 4.335938 19.566406 L 6.394531 19.566406 C 6.660156 19.566406 6.875 19.351562 6.875 19.085938 L 6.875 15.574219 C 6.875 15.308594 6.660156 15.09375 6.394531 15.09375 L 4.335938 15.09375 C 4.074219 15.09375 3.859375 15.308594 3.859375 15.574219 L 3.859375 19.085938 C 3.859375 19.351562 4.074219 19.566406 4.335938 19.566406 Z M 4.816406 16.054688 L 5.914062 16.054688 L 5.914062 18.605469 L 4.816406 18.605469 Z M 4.816406 16.054688 "/>
<path style=" stroke:none;fill-rule:nonzero;fill:rgb(13.72549%,12.156863%,12.54902%);fill-opacity:1;" d="M 10.507812 19.566406 C 10.773438 19.566406 10.988281 19.351562 10.988281 19.085938 L 10.988281 9.179688 C 10.988281 8.914062 10.773438 8.699219 10.507812 8.699219 L 8.453125 8.699219 C 8.1875 8.699219 7.972656 8.914062 7.972656 9.179688 L 7.972656 19.085938 C 7.972656 19.351562 8.1875 19.566406 8.453125 19.566406 Z M 8.933594 9.660156 L 10.027344 9.660156 L 10.027344 18.605469 L 8.933594 18.605469 Z M 8.933594 9.660156 "/>
<path style=" stroke:none;fill-rule:nonzero;fill:rgb(13.72549%,12.156863%,12.54902%);fill-opacity:1;" d="M 14.625 19.566406 C 14.886719 19.566406 15.101562 19.351562 15.101562 19.085938 L 15.101562 12.460938 C 15.101562 12.195312 14.886719 11.980469 14.625 11.980469 L 12.566406 11.980469 C 12.300781 11.980469 12.085938 12.195312 12.085938 12.460938 L 12.085938 19.085938 C 12.085938 19.351562 12.300781 19.566406 12.566406 19.566406 Z M 13.046875 12.941406 L 14.144531 12.941406 L 14.144531 18.605469 L 13.046875 18.605469 Z M 13.046875 12.941406 "/>
<path style=" stroke:none;fill-rule:nonzero;fill:rgb(13.72549%,12.156863%,12.54902%);fill-opacity:1;" d="M 16.199219 4.6875 L 16.199219 19.085938 C 16.199219 19.351562 16.414062 19.566406 16.679688 19.566406 L 18.738281 19.566406 C 19.003906 19.566406 19.21875 19.351562 19.21875 19.085938 L 19.21875 4.6875 C 19.21875 4.421875 19.003906 4.207031 18.738281 4.207031 L 16.679688 4.207031 C 16.414062 4.207031 16.199219 4.421875 16.199219 4.6875 Z M 17.160156 5.167969 L 18.257812 5.167969 L 18.257812 18.605469 L 17.160156 18.605469 Z M 17.160156 5.167969 "/>
</g>
</svg>
