<?xml version="1.0" encoding="UTF-8"?>
<svg xmlns="http://www.w3.org/2000/svg" xmlns:xlink="http://www.w3.org/1999/xlink" width="24px" height="24px" viewBox="0 0 24 24" version="1.1">
<g id="surface1">
<path style=" stroke:none;fill-rule:nonzero;fill:rgb(0%,0%,0%);fill-opacity:1;" d="M 15.46875 12.386719 C 17.597656 10.878906 18.511719 8.160156 17.71875 5.671875 C 16.925781 3.183594 14.613281 1.492188 12 1.492188 C 9.386719 1.492188 7.074219 3.183594 6.28125 5.671875 C 5.492188 8.160156 6.402344 10.878906 8.53125 12.386719 C 4.371094 13.601562 1.507812 17.414062 1.5 21.75 C 1.5 22.164062 1.835938 22.5 2.25 22.5 L 21.75 22.5 C 22.164062 22.5 22.5 22.164062 22.5 21.75 C 22.492188 17.414062 19.628906 13.601562 15.46875 12.386719 Z M 7.5 7.5 C 7.5 5.015625 9.515625 3 12 3 C 14.484375 3 16.5 5.015625 16.5 7.5 C 16.5 9.984375 14.484375 12 12 12 C 9.515625 11.996094 7.503906 9.984375 7.5 7.5 Z M 3.035156 21 C 3.425781 16.753906 6.984375 13.503906 11.25 13.5 L 12.75 13.5 C 17.015625 13.503906 20.574219 16.753906 20.964844 21 Z M 3.035156 21 "/>
</g>
</svg>
